<svg width="87" height="39" viewBox="0 0 87 39" fill="none" xmlns="http://www.w3.org/2000/svg"><g clip-path="url(#a)"><path d="M39.302 7.62h4.012v20.876h-4.012v-2.62h-.082c-1.105 1.596-3.274 3.193-6.877 3.193-3.848 0-6.959-2.211-6.959-7V7.619h4.012v13.344c0 2.825 1.228 4.708 4.257 4.708 3.438 0 5.649-2.089 5.649-5.24V7.617zm8.514 20.875V7.618h4.012v20.877zM51.81.581v3.975h-3.974V.58zm4.52 27.914V.44h4.012v28.055zm17.93-3.233v3.233a11.5 11.5 0 0 1-2.538.245c-3.44 0-5.526-1.31-5.526-6.14V10.936h-3.03V7.619h3.03V.451h4.011v7.168h4.012v3.316h-4.012v11.788c0 2.211.614 2.702 2.334 2.702.695 0 1.024-.04 1.719-.163m12.73 0v3.233a11.5 11.5 0 0 1-2.539.245c-3.438 0-5.526-1.31-5.526-6.14V10.936h-3.03V7.619h3.03V.451h4.012v7.168h4.011v3.316h-4.011v11.788c0 2.211.614 2.702 2.333 2.702.696 0 1.024-.04 1.72-.163M2.628 3.297v.232h.329v-.232zm15.313 11.981v-.071c2.136-.724 4.019-2.209 4.019-5.395 0-4.126-3.114-6.515-8.435-6.515H6.61v3.439h7.097c2.714 0 4.09 1.375 4.09 3.656 0 2.28-1.122 3.656-4.38 3.656H6.612V6.736H2.63v19.006h3.982v-8.544h7.819c2.715 0 4.38 1.558 4.38 4.272 0 2.426-1.086 4.272-4.923 4.272H6.61v3.44h7.567c5.357 0 8.797-2.607 8.797-7.567 0-3.874-2.318-5.863-5.033-6.335z" fill="#012734"/><path d="M.588.363h3.975v3.975H.588z" fill="#86969C"/><path d="M12.097 33.313c.975 0 1.717.764 1.717 2.024s-.742 2.018-1.717 2.018c-.6 0-.968-.27-1.178-.577h-.015v1.8h-.735v-5.153h.735v.45h.015c.21-.27.578-.562 1.178-.562m-.12 3.435c.72 0 1.065-.66 1.065-1.41s-.345-1.41-1.065-1.41c-.66 0-1.065.54-1.065 1.41 0 .862.405 1.41 1.065 1.41m4.33.614c-1.193 0-1.913-.825-1.913-2.025 0-1.192.72-2.032 1.92-2.032 1.185 0 1.905.833 1.905 2.025 0 1.2-.72 2.032-1.912 2.032m.007-.607c.78 0 1.14-.623 1.14-1.418 0-.802-.36-1.417-1.14-1.417-.795 0-1.155.615-1.155 1.417 0 .795.36 1.418 1.155 1.418m4.183.495h-.757l-1.185-3.825h.795l.81 2.963h.015l.795-2.963h.742l.795 2.963h.015l.818-2.963h.765L22.92 37.25h-.758l-.825-2.947h-.015zm7.651-1.995c0 .105 0 .217-.008.277H25.2c.015.638.39 1.23 1.148 1.23.675 0 .938-.434 1.005-.69h.75c-.203.735-.765 1.29-1.77 1.29-1.215 0-1.89-.862-1.89-2.032 0-1.2.72-2.025 1.89-2.025 1.163 0 1.815.765 1.815 1.95m-2.947-.3h2.182c0-.6-.42-1.05-1.072-1.05-.616 0-1.065.42-1.11 1.05m5.495-1.62c.135 0 .24.008.353.023v.705a1.4 1.4 0 0 0-.248-.023c-.667 0-1.147.502-1.147 1.23v1.98h-.735v-3.825h.735v.728h.015c.202-.48.51-.818 1.027-.818m4.33 1.92c0 .105 0 .217-.008.277h-2.94c.015.638.39 1.23 1.147 1.23.675 0 .938-.434 1.005-.69h.75c-.202.735-.765 1.29-1.77 1.29-1.215 0-1.89-.862-1.89-2.032 0-1.2.72-2.025 1.89-2.025 1.163 0 1.815.765 1.815 1.95m-2.948-.3h2.182c0-.6-.42-1.05-1.072-1.05-.615 0-1.065.42-1.11 1.05m6.433-1.065v-2.003h.735v5.363h-.735v-.45h-.015c-.21.27-.578.555-1.178.555-.974 0-1.717-.758-1.717-2.017 0-1.26.742-2.026 1.718-2.026.6 0 .967.278 1.177.578zm-1.073 2.858c.66 0 1.066-.548 1.066-1.41 0-.87-.405-1.41-1.065-1.41-.72 0-1.073.66-1.073 1.41s.352 1.41 1.072 1.41m6.43-3.435c.975 0 1.718.764 1.718 2.024s-.743 2.018-1.718 2.018c-.6 0-.967-.27-1.177-.577h-.015v.472h-.735v-5.363h.735v1.988h.015c.21-.27.577-.562 1.177-.562m-.12 3.435c.72 0 1.065-.66 1.065-1.41s-.345-1.41-1.065-1.41c-.66 0-1.065.54-1.065 1.41 0 .862.405 1.41 1.065 1.41m3.013 1.845c-.166 0-.278-.016-.473-.053v-.6c.128.015.195.023.315.023.292 0 .637-.15.788-.75l-1.545-3.788h.802l1.117 2.925h.016l1.05-2.925h.772l-1.515 3.915c-.367.945-.735 1.252-1.328 1.252m7.15-1.343h-2.055v-5.363h2.04c1.485 0 2.385.96 2.385 2.685s-.885 2.678-2.37 2.678m-1.23-.712h1.178c1.245 0 1.567-.93 1.567-1.965s-.32-1.972-1.564-1.972h-1.18zm7.945-1.283c0 .105 0 .217-.008.277h-2.94c.015.638.39 1.23 1.148 1.23.675 0 .937-.434 1.005-.69h.75c-.203.735-.765 1.29-1.77 1.29-1.215 0-1.89-.862-1.89-2.032 0-1.2.72-2.025 1.89-2.025 1.162 0 1.815.765 1.815 1.95m-2.948-.3h2.183c0-.6-.42-1.05-1.073-1.05-.615 0-1.065.42-1.11 1.05m6.419-1.08v-.45h.735v3.525c0 1.155-.698 1.672-1.793 1.672s-1.642-.525-1.717-1.215h.765c.075.346.33.616.952.616.698 0 1.058-.308 1.058-1.028v-.517h-.015c-.21.307-.563.577-1.178.577-.952 0-1.687-.645-1.687-1.867 0-1.23.735-1.876 1.687-1.876.615 0 .968.293 1.178.563zm-1.058 2.572c.66 0 1.05-.427 1.05-1.26 0-.84-.39-1.26-1.05-1.26-.72 0-1.057.54-1.057 1.26s.337 1.26 1.057 1.26m4.473.915c-1.192 0-1.912-.825-1.912-2.025 0-1.192.72-2.032 1.92-2.032 1.185 0 1.905.833 1.905 2.025 0 1.2-.72 2.032-1.913 2.032m.008-.607c.78 0 1.14-.623 1.14-1.418 0-.802-.36-1.417-1.14-1.417-.795 0-1.155.615-1.155 1.417 0 .795.36 1.418 1.155 1.418m4.458-3.42c.135 0 .24.008.352.023v.705a1.4 1.4 0 0 0-.247-.023c-.668 0-1.148.502-1.148 1.23v1.98H70.2v-3.825h.735v.728h.015c.203-.48.51-.818 1.028-.818m3.548.555v-2.003h.735v5.363h-.735v-.45h-.015c-.21.27-.577.555-1.177.555-.975 0-1.718-.758-1.718-2.017 0-1.26.743-2.026 1.718-2.026.6 0 .967.278 1.177.578zm-1.072 2.858c.66 0 1.065-.548 1.065-1.41 0-.87-.405-1.41-1.065-1.41-.72 0-1.073.66-1.073 1.41s.353 1.41 1.073 1.41m3.572-4.005h-.832v-.796h.832zm-.052 4.507h-.736v-3.825h.736zm2.032.105c-.765 0-1.252-.442-1.252-1.095 0-.855.644-1.11 1.597-1.29.6-.112.968-.187.968-.562 0-.278-.166-.51-.728-.51-.667 0-.87.21-.907.72h-.75c.037-.736.517-1.313 1.687-1.313.788 0 1.418.33 1.418 1.32v1.755c0 .277.037.42.18.42.022 0 .044 0 .09-.008v.45a1.7 1.7 0 0 1-.376.046c-.367 0-.562-.143-.607-.578h-.015c-.248.398-.683.645-1.305.645m.165-.592c.66 0 1.147-.338 1.147-1.005v-.548c-.12.112-.45.195-.84.277-.674.136-.96.323-.96.72 0 .36.195.556.653.556m4.922-3.45c.705 0 1.275.404 1.275 1.282v2.655h-.735v-2.453c0-.51-.225-.854-.78-.854-.63 0-1.035.382-1.035.96v2.347h-.735v-3.825h.735v.48h.015c.202-.293.6-.593 1.26-.593" fill="#7B868A"/></g><defs><clipPath id="a"><path fill="#fff" d="M0 0h87v38.25H0z"/></clipPath></defs></svg>